<mxfile host="app.diagrams.net" modified="2023-09-07T18:24:59.674Z" agent="Mozilla/5.0 (Windows NT 10.0; Win64; x64) AppleWebKit/537.36 (KHTML, like Gecko) Chrome/114.0.0.0 Safari/537.36" etag="Fs7OD9f2SKECpq5Y05Ow" version="21.7.2" type="device">
  <diagram name="Página-1" id="ZdtdkMpKekEHSUUu7NdS">
    <mxGraphModel dx="733" dy="403" grid="1" gridSize="10" guides="1" tooltips="1" connect="1" arrows="1" fold="1" page="1" pageScale="1" pageWidth="827" pageHeight="1169" math="0" shadow="0">
      <root>
        <mxCell id="0" />
        <mxCell id="1" parent="0" />
        <mxCell id="BkSNGdHSIphNhUj36QaJ-3" value="" style="edgeStyle=orthogonalEdgeStyle;rounded=0;orthogonalLoop=1;jettySize=auto;html=1;" edge="1" parent="1" source="BkSNGdHSIphNhUj36QaJ-1" target="BkSNGdHSIphNhUj36QaJ-2">
          <mxGeometry relative="1" as="geometry" />
        </mxCell>
        <mxCell id="BkSNGdHSIphNhUj36QaJ-4" value="Usuario ASODI" style="edgeLabel;html=1;align=center;verticalAlign=middle;resizable=0;points=[];" vertex="1" connectable="0" parent="BkSNGdHSIphNhUj36QaJ-3">
          <mxGeometry y="-1" relative="1" as="geometry">
            <mxPoint as="offset" />
          </mxGeometry>
        </mxCell>
        <mxCell id="BkSNGdHSIphNhUj36QaJ-1" value="Inicio" style="ellipse;whiteSpace=wrap;html=1;" vertex="1" parent="1">
          <mxGeometry x="210" y="170" width="120" height="80" as="geometry" />
        </mxCell>
        <mxCell id="BkSNGdHSIphNhUj36QaJ-6" value="" style="edgeStyle=orthogonalEdgeStyle;rounded=0;orthogonalLoop=1;jettySize=auto;html=1;" edge="1" parent="1" source="BkSNGdHSIphNhUj36QaJ-2" target="BkSNGdHSIphNhUj36QaJ-5">
          <mxGeometry relative="1" as="geometry" />
        </mxCell>
        <mxCell id="BkSNGdHSIphNhUj36QaJ-2" value="Inicio Sesión" style="whiteSpace=wrap;html=1;" vertex="1" parent="1">
          <mxGeometry x="210" y="340" width="120" height="60" as="geometry" />
        </mxCell>
        <mxCell id="BkSNGdHSIphNhUj36QaJ-8" value="" style="edgeStyle=orthogonalEdgeStyle;rounded=0;orthogonalLoop=1;jettySize=auto;html=1;" edge="1" parent="1" source="BkSNGdHSIphNhUj36QaJ-5" target="BkSNGdHSIphNhUj36QaJ-7">
          <mxGeometry relative="1" as="geometry" />
        </mxCell>
        <mxCell id="BkSNGdHSIphNhUj36QaJ-5" value="Acceder a la sección de publicaciones" style="whiteSpace=wrap;html=1;" vertex="1" parent="1">
          <mxGeometry x="410" y="340" width="120" height="60" as="geometry" />
        </mxCell>
        <mxCell id="BkSNGdHSIphNhUj36QaJ-10" value="" style="edgeStyle=orthogonalEdgeStyle;rounded=0;orthogonalLoop=1;jettySize=auto;html=1;" edge="1" parent="1" source="BkSNGdHSIphNhUj36QaJ-7" target="BkSNGdHSIphNhUj36QaJ-9">
          <mxGeometry relative="1" as="geometry" />
        </mxCell>
        <mxCell id="BkSNGdHSIphNhUj36QaJ-7" value="Crea nueva publicación" style="whiteSpace=wrap;html=1;" vertex="1" parent="1">
          <mxGeometry x="570" y="340" width="120" height="60" as="geometry" />
        </mxCell>
        <mxCell id="BkSNGdHSIphNhUj36QaJ-12" value="" style="edgeStyle=orthogonalEdgeStyle;rounded=0;orthogonalLoop=1;jettySize=auto;html=1;" edge="1" parent="1" source="BkSNGdHSIphNhUj36QaJ-9" target="BkSNGdHSIphNhUj36QaJ-11">
          <mxGeometry relative="1" as="geometry" />
        </mxCell>
        <mxCell id="BkSNGdHSIphNhUj36QaJ-9" value="Ingresa contenido de la publicación" style="whiteSpace=wrap;html=1;" vertex="1" parent="1">
          <mxGeometry x="570" y="490" width="120" height="60" as="geometry" />
        </mxCell>
        <mxCell id="BkSNGdHSIphNhUj36QaJ-14" value="" style="edgeStyle=orthogonalEdgeStyle;rounded=0;orthogonalLoop=1;jettySize=auto;html=1;" edge="1" parent="1" source="BkSNGdHSIphNhUj36QaJ-11" target="BkSNGdHSIphNhUj36QaJ-13">
          <mxGeometry relative="1" as="geometry" />
        </mxCell>
        <mxCell id="BkSNGdHSIphNhUj36QaJ-11" value="Guarda la publicación" style="whiteSpace=wrap;html=1;" vertex="1" parent="1">
          <mxGeometry x="370" y="490" width="120" height="60" as="geometry" />
        </mxCell>
        <mxCell id="BkSNGdHSIphNhUj36QaJ-16" value="" style="edgeStyle=orthogonalEdgeStyle;rounded=0;orthogonalLoop=1;jettySize=auto;html=1;" edge="1" parent="1" source="BkSNGdHSIphNhUj36QaJ-13" target="BkSNGdHSIphNhUj36QaJ-15">
          <mxGeometry relative="1" as="geometry" />
        </mxCell>
        <mxCell id="BkSNGdHSIphNhUj36QaJ-17" value="No" style="edgeLabel;html=1;align=center;verticalAlign=middle;resizable=0;points=[];" vertex="1" connectable="0" parent="BkSNGdHSIphNhUj36QaJ-16">
          <mxGeometry x="-0.1963" y="1" relative="1" as="geometry">
            <mxPoint as="offset" />
          </mxGeometry>
        </mxCell>
        <mxCell id="BkSNGdHSIphNhUj36QaJ-19" value="" style="edgeStyle=orthogonalEdgeStyle;rounded=0;orthogonalLoop=1;jettySize=auto;html=1;entryX=1;entryY=0.5;entryDx=0;entryDy=0;" edge="1" parent="1" source="BkSNGdHSIphNhUj36QaJ-13" target="BkSNGdHSIphNhUj36QaJ-21">
          <mxGeometry relative="1" as="geometry">
            <mxPoint x="150" y="520" as="targetPoint" />
          </mxGeometry>
        </mxCell>
        <mxCell id="BkSNGdHSIphNhUj36QaJ-20" value="Si" style="edgeLabel;html=1;align=center;verticalAlign=middle;resizable=0;points=[];" vertex="1" connectable="0" parent="BkSNGdHSIphNhUj36QaJ-19">
          <mxGeometry x="0.06" relative="1" as="geometry">
            <mxPoint as="offset" />
          </mxGeometry>
        </mxCell>
        <mxCell id="BkSNGdHSIphNhUj36QaJ-13" value="¿Guardado&lt;br&gt;Exitoso?" style="rhombus;whiteSpace=wrap;html=1;" vertex="1" parent="1">
          <mxGeometry x="230" y="480" width="80" height="80" as="geometry" />
        </mxCell>
        <mxCell id="BkSNGdHSIphNhUj36QaJ-24" style="edgeStyle=orthogonalEdgeStyle;rounded=0;orthogonalLoop=1;jettySize=auto;html=1;entryX=1;entryY=0.5;entryDx=0;entryDy=0;" edge="1" parent="1" source="BkSNGdHSIphNhUj36QaJ-15" target="BkSNGdHSIphNhUj36QaJ-23">
          <mxGeometry relative="1" as="geometry" />
        </mxCell>
        <mxCell id="BkSNGdHSIphNhUj36QaJ-15" value="Mostrar mensaje de error" style="whiteSpace=wrap;html=1;" vertex="1" parent="1">
          <mxGeometry x="210" y="650" width="120" height="60" as="geometry" />
        </mxCell>
        <mxCell id="BkSNGdHSIphNhUj36QaJ-25" style="edgeStyle=orthogonalEdgeStyle;rounded=0;orthogonalLoop=1;jettySize=auto;html=1;entryX=0.5;entryY=0;entryDx=0;entryDy=0;" edge="1" parent="1" source="BkSNGdHSIphNhUj36QaJ-21" target="BkSNGdHSIphNhUj36QaJ-23">
          <mxGeometry relative="1" as="geometry" />
        </mxCell>
        <mxCell id="BkSNGdHSIphNhUj36QaJ-21" value="Mostrar confirmación" style="whiteSpace=wrap;html=1;" vertex="1" parent="1">
          <mxGeometry x="30" y="490" width="120" height="60" as="geometry" />
        </mxCell>
        <mxCell id="BkSNGdHSIphNhUj36QaJ-23" value="Fin" style="ellipse;whiteSpace=wrap;html=1;" vertex="1" parent="1">
          <mxGeometry x="30" y="640" width="120" height="80" as="geometry" />
        </mxCell>
      </root>
    </mxGraphModel>
  </diagram>
</mxfile>
